<?xml version="1.0" encoding="UTF-8" standalone="no"?>
<!-- Created with Inkscape (http://www.inkscape.org/) -->

<svg
   width="50mm"
   height="50mm"
   viewBox="0 0 50 50"
   version="1.1"
   id="svg1"
   inkscape:export-filename="migrator.png"
   inkscape:export-xdpi="254"
   inkscape:export-ydpi="254"
   inkscape:version="1.4 (1:1.4+202410161351+e7c3feb100)"
   sodipodi:docname="aptos.svg"
   xmlns:inkscape="http://www.inkscape.org/namespaces/inkscape"
   xmlns:sodipodi="http://sodipodi.sourceforge.net/DTD/sodipodi-0.dtd"
   xmlns="http://www.w3.org/2000/svg"
   xmlns:svg="http://www.w3.org/2000/svg">
  <sodipodi:namedview
     id="namedview1"
     pagecolor="#ffffff"
     bordercolor="#000000"
     borderopacity="0.25"
     inkscape:showpageshadow="2"
     inkscape:pageopacity="0.0"
     inkscape:pagecheckerboard="0"
     inkscape:deskcolor="#d1d1d1"
     inkscape:document-units="mm"
     inkscape:zoom="2.0815271"
     inkscape:cx="149.16933"
     inkscape:cy="98.725596"
     inkscape:window-width="1536"
     inkscape:window-height="849"
     inkscape:window-x="0"
     inkscape:window-y="0"
     inkscape:window-maximized="1"
     inkscape:current-layer="layer1" />
  <defs
     id="defs1" />
  <g
     inkscape:label="Layer 1"
     inkscape:groupmode="layer"
     id="layer1">
    <rect
       style="fill:#ffffff;stroke-width:0.264583;fill-opacity:1"
       id="rect3"
       width="59.360466"
       height="57.580925"
       x="-2.7964244"
       y="-4.0675268" />
    <g
       id="g3"
       transform="matrix(1.1107997,0,0,1.1107997,-1.3270475,-3.1124617)">
      <text
         xml:space="preserve"
         style="font-size:8.17322px;text-align:start;writing-mode:lr-tb;direction:ltr;text-anchor:start;fill:#120d26;stroke-width:0.061299"
         x="2.4338529"
         y="27.975164"
         id="text1"><tspan
           sodipodi:role="line"
           id="tspan1"
           style="font-style:normal;font-variant:normal;font-weight:normal;font-stretch:normal;font-size:8.17322px;font-family:'DejaVu Sans';-inkscape-font-specification:'DejaVu Sans';stroke-width:0.061299"
           x="2.4338529"
           y="27.975164">MIGRAT  R</tspan></text>
      <text
         xml:space="preserve"
         style="font-size:8.1732px;text-align:start;writing-mode:lr-tb;direction:ltr;text-anchor:start;fill:#120d26;stroke-width:0.061299"
         x="27.59123"
         y="41.645157"
         id="text2"><tspan
           sodipodi:role="line"
           id="tspan2"
           style="stroke-width:0.061299"
           x="27.59123"
           y="41.645157"></tspan></text>
      <g
         id="g1"
         transform="matrix(0.05349537,0,0,0.05349537,33.041584,22.066021)">
        <path
           fill="currentColor"
           d="m 86.6,37.4 h -9.9 c -1.1,0 -2.2,-0.5 -3,-1.3 l -4,-4.5 c -1.2,-1.3 -3.1,-1.4 -4.5,-0.3 l -0.3,0.3 -3.4,3.9 c -1.1,1.3 -2.8,2 -4.5,2 H 2.9 C 1.4,41.9 0.4,46.6 0,51.3 h 51.2 c 0.9,0 1.8,-0.4 2.4,-1 l 4.8,-5 c 0.6,-0.6 1.4,-1 2.3,-1 h 0.2 c 0.9,0 1.8,0.4 2.4,1.1 l 4,4.5 c 0.8,0.9 1.9,1.4 3,1.4 H 112 c -0.4,-4.7 -1.4,-9.4 -2.9,-13.8 H 86.6 Z M 53.8,65 l -4,-4.5 c -1.2,-1.3 -3.1,-1.4 -4.5,-0.3 l -0.3,0.3 -3.5,3.9 c -1.1,1.3 -2.7,2 -4.4,2 H 0.8 c 0.9,4.8 2.5,9.5 4.6,14 h 25.5 c 0.9,0 1.7,-0.4 2.4,-1 l 4.8,-5 c 0.6,-0.6 1.4,-1 2.3,-1 h 0.2 c 0.9,0 1.8,0.4 2.4,1.1 l 4,4.5 c 0.8,0.9 1.9,1.4 3,1.4 h 56.6 c 2.1,-4.4 3.7,-9.1 4.6,-14 H 56.8 c -1.2,0 -2.3,-0.5 -3,-1.4 z m 19.6,-43.6 4.8,-5 c 0.6,-0.6 1.4,-1 2.3,-1 h 0.2 c 0.9,0 1.8,0.4 2.4,1 l 4,4.5 c 0.8,0.9 1.9,1.3 3,1.3 h 10.8 c -18.8,-24.8 -54.1,-29.7 -79,-11 -4.1,3.1 -7.8,6.8 -11,11 H 71 c 1,0.2 1.8,-0.2 2.4,-0.8 z M 34.7,94.2 c -1.2,0 -2.3,-0.5 -3,-1.3 l -4,-4.5 C 26.5,87.1 24.5,87 23.2,88.2 l -0.2,0.2 -3.5,3.9 c -1.1,1.3 -2.7,2 -4.4,2 H 14.9 C 36,116.9 71.7,118 94.4,96.7 95.3,95.9 96.1,95 97,94.1 H 34.7 Z"
           id="path1" />
      </g>
    </g>
  </g>
</svg>
